<svg xmlns="http://www.w3.org/2000/svg" version="1.1" xmlns:xlink="http://www.w3.org/1999/xlink" xmlns:svgjs="http://svgjs.dev/svgjs" width="1500" height="276" viewBox="0 0 1500 276"><g transform="matrix(1,0,0,1,-0.9090909090909918,0.6317361361380449)"><svg viewBox="0 0 396 73" data-background-color="#89939e" preserveAspectRatio="xMidYMid meet" height="276" width="1500" xmlns="http://www.w3.org/2000/svg" xmlns:xlink="http://www.w3.org/1999/xlink"><g id="tight-bounds" transform="matrix(1,0,0,1,0.2400000000000091,-0.16708963021042678)"><svg viewBox="0 0 395.52 73.33417926042084" height="73.33417926042084" width="395.52"><g><svg viewBox="0 0 561.7377762595133 104.15296010711297" height="73.33417926042084" width="395.52"><g><rect width="7.387388652484016" height="82.32690878661086" x="139.49167385707113" y="10.913025660251058" fill="#ffffff" opacity="1" stroke-width="0" stroke="transparent" fill-opacity="1" class="rect-yte-0" data-fill-palette-color="secondary" rx="1%" id="yte-0" data-palette-color="#ffffff"></rect></g><g transform="matrix(1,0,0,1,166.2177762595133,11.117818965690383)"><svg viewBox="0 0 395.52 81.91732217573221" height="81.91732217573221" width="395.52"><g id="textblocktransform"><svg viewBox="0 0 395.52 81.91732217573221" height="81.91732217573221" width="395.52" id="textblock"><g><svg viewBox="0 0 395.52 81.91732217573221" height="81.91732217573221" width="395.52"><g transform="matrix(1,0,0,1,0,0)"><svg width="395.52" viewBox="4.69 -33.84 163.36 33.84" height="81.91732217573221" data-palette-color="#ffffff"><path d="M15.36 0L4.69 0 4.69-33.84 14.58-33.84Q19.75-33.84 22.96-31.9 26.17-29.96 26.17-25.56L26.17-25.56Q26.17-23.05 24.87-21.03 23.56-19.02 21.17-18.24L21.17-18.24 21.17-18.02Q24.22-17.41 26.17-15.39 28.13-13.38 28.13-9.89L28.13-9.89Q28.13-6.59 26.51-4.39 24.9-2.2 22.02-1.1 19.14 0 15.36 0L15.36 0ZM8.69-30.59L8.69-19.36 13.79-19.36Q18.24-19.36 20.21-20.89 22.19-22.41 22.19-25.02L22.19-25.02Q22.19-28.08 20.13-29.33 18.07-30.59 14.01-30.59L14.01-30.59 8.69-30.59ZM8.69-16.28L8.69-3.17 14.72-3.17Q19.17-3.17 21.67-4.85 24.17-6.52 24.17-9.99L24.17-9.99Q24.17-13.18 21.7-14.73 19.24-16.28 14.72-16.28L14.72-16.28 8.69-16.28ZM46.41-33.84L57.96 0 53.68 0 50.36-10.5 37.86-10.5 34.52 0 30.39 0 41.94-33.84 46.41-33.84ZM40.6-19.07L40.6-19.07 38.89-13.7 49.36-13.7 47.65-19.07Q46.73-21.92 45.9-24.73 45.07-27.54 44.21-30.49L44.21-30.49 43.99-30.49Q43.23-27.54 42.38-24.73 41.53-21.92 40.6-19.07ZM73.48 0L62.81 0 62.81-33.84 72.7-33.84Q77.88-33.84 81.09-31.9 84.3-29.96 84.3-25.56L84.3-25.56Q84.3-23.05 82.99-21.03 81.68-19.02 79.29-18.24L79.29-18.24 79.29-18.02Q82.34-17.41 84.3-15.39 86.25-13.38 86.25-9.89L86.25-9.89Q86.25-6.59 84.64-4.39 83.03-2.2 80.15-1.1 77.27 0 73.48 0L73.48 0ZM66.82-30.59L66.82-19.36 71.92-19.36Q76.36-19.36 78.34-20.89 80.32-22.41 80.32-25.02L80.32-25.02Q80.32-28.08 78.25-29.33 76.19-30.59 72.14-30.59L72.14-30.59 66.82-30.59ZM66.82-16.28L66.82-3.17 72.85-3.17Q77.29-3.17 79.79-4.85 82.29-6.52 82.29-9.99L82.29-9.99Q82.29-13.18 79.83-14.73 77.36-16.28 72.85-16.28L72.85-16.28 66.82-16.28ZM103.73 0L93.06 0 93.06-33.84 102.95-33.84Q108.12-33.84 111.33-31.9 114.54-29.96 114.54-25.56L114.54-25.56Q114.54-23.05 113.24-21.03 111.93-19.02 109.54-18.24L109.54-18.24 109.54-18.02Q112.59-17.41 114.54-15.39 116.5-13.38 116.5-9.89L116.5-9.89Q116.5-6.59 114.89-4.39 113.27-2.2 110.39-1.1 107.51 0 103.73 0L103.73 0ZM97.06-30.59L97.06-19.36 102.17-19.36Q106.61-19.36 108.59-20.89 110.56-22.41 110.56-25.02L110.56-25.02Q110.56-28.08 108.5-29.33 106.44-30.59 102.39-30.59L102.39-30.59 97.06-30.59ZM97.06-16.28L97.06-3.17 103.09-3.17Q107.54-3.17 110.04-4.85 112.54-6.52 112.54-9.99L112.54-9.99Q112.54-13.18 110.08-14.73 107.61-16.28 103.09-16.28L103.09-16.28 97.06-16.28ZM142.2 0L123.31 0 123.31-33.84 127.31-33.84 127.31-3.39 142.2-3.39 142.2 0ZM168.05 0L148.18 0 148.18-33.84 167.54-33.84 167.54-30.44 152.18-30.44 152.18-19.53 165.12-19.53 165.12-16.06 152.18-16.06 152.18-3.39 168.05-3.39 168.05 0Z" opacity="1" transform="matrix(1,0,0,1,0,0)" fill="#ffffff" class="wordmark-text-0" data-fill-palette-color="primary" id="text-0"></path></svg></g></svg></g></svg></g></svg></g><g><svg viewBox="0 0 120.15296010711297 104.15296010711297" height="104.15296010711297" width="120.15296010711297"><g><svg xmlns="http://www.w3.org/2000/svg" xml:space="preserve" viewBox="5 5 90 90" x="8" y="0" height="104.15296010711297" width="104.15296010711297" class="icon-icon-0" data-fill-palette-color="accent" id="icon-0"><path d="M81.1 42.6c1.7 0 3.3 0.2 4.9 0.6 0.8-2.2 1.2-4.6 1.2-7.1v-10C87.2 14.5 77.8 5 66.1 5h-40C14.4 5 5 14.5 5 26.1v10c0 10 7.1 18.6 16.8 20.6l3.2 0.7v15.3l11.9-9.9c0.9-11.3 10.4-20.1 21.9-20.1z" fill="#ffffff" data-fill-palette-color="accent"></path><path d="M81.1 50.5H58.8c-0.4 0-0.8 0-1.3 0.1h-0.3c-0.4 0-0.8 0.1-1.2 0.2h-0.2c-0.3 0.1-0.7 0.2-1 0.3-0.1 0-0.2 0.1-0.3 0.1-0.3 0.1-0.7 0.2-1 0.4-0.1 0.1-0.3 0.1-0.4 0.2-0.2 0.1-0.4 0.2-0.7 0.3-0.1 0.1-0.3 0.1-0.4 0.2-0.3 0.2-0.5 0.3-0.8 0.5-0.2 0.1-0.3 0.2-0.5 0.4-0.1 0.1-0.2 0.2-0.4 0.3-0.4 0.3-0.7 0.6-1 0.9l-0.1 0.1-0.6 0.6-0.1 0.1c-0.4 0.4-0.7 0.8-1 1.2-0.2 0.2-0.3 0.5-0.5 0.7-1.4 2.2-2.2 4.7-2.2 7.4V70c0 7.7 6.3 13.9 13.9 13.9h11.7L83.8 95V83.7C90.2 82.4 95 76.7 95 70v-5.6c0-7.6-6.3-13.9-13.9-13.9M56.7 71.6c-2.5 0-4.5-2-4.5-4.5s2-4.5 4.5-4.5 4.5 2 4.5 4.5-2 4.5-4.5 4.5m13.5 0c-2.5 0-4.5-2-4.5-4.5s2-4.5 4.5-4.5 4.5 2 4.5 4.5-2.1 4.5-4.5 4.5m13.4 0c-2.5 0-4.5-2-4.5-4.5s2-4.5 4.5-4.5 4.5 2 4.5 4.5-2 4.5-4.5 4.5" fill="#ffffff" data-fill-palette-color="accent"></path></svg></g></svg></g></svg></g><defs></defs></svg><rect width="395.52" height="73.33417926042084" fill="none" stroke="none" visibility="hidden"></rect></g></svg></g></svg>